<?xml version="1.0" encoding="utf-8"?>
<!-- Generator: Adobe Illustrator 26.2.1, SVG Export Plug-In . SVG Version: 6.00 Build 0)  -->
<svg version="1.1" id="Capa_1" xmlns="http://www.w3.org/2000/svg" xmlns:xlink="http://www.w3.org/1999/xlink" x="0px" y="0px"
	 viewBox="0 0 144.4 185" style="enable-background:new 0 0 144.4 185;" xml:space="preserve">
<style type="text/css">
	.st0{fill:#F9C2A8;}
	.st1{fill:#DC918B;}
	.st2{fill:#E84055;}
	.st3{fill:#BE193C;}
	.st4{fill:#474E64;}
	.st5{fill:#343948;}
	.st6{fill:#31374C;}
	.st7{fill:#E1353C;}
	.st8{fill:#F6AB8D;}
	.st9{fill:#2B2E3A;}
	.st10{fill:#FFFFFF;}
	.st11{opacity:0.2;fill:#E84055;enable-background:new    ;}
	.st12{opacity:0.6;fill:url(#SVGID_1_);enable-background:new    ;}
	.st13{fill:#EF797B;}
	.st14{fill:#E0E4F4;}
</style>
<g>
	<path class="st0" d="M55.1,167.6c0,0,1.9,0.2,3.3,2.3c1.8,2.7,2.4,5.6,1.3,8c-1.1,2.3-1.4,2.9-1.6,4.2c-0.1,0.8,0.6,3.4,0.8,4
		c0.3,1.2-0.6,1.4-0.6,1.4c0.4,0.9,0,1.4-0.3,1.4c-1.1-0.1-1.8-3.5-2.5-4.9c0,0,1.1,4,1.3,5.9c0.1,1.8-1.5,1.6-2-0.3
		c0,0-1.4-0.5-1.9-2.2c-0.6-1.8-1.5-5.3-1.1-7.4s1.5-7.2,1.5-7.2L55.1,167.6z"/>
	<path class="st1" d="M53.8,175.7c0.3,0.8,0.5,1.6,0.7,2.4c0.2,0.8,0.3,1.6,0.4,2.5c0,0.2,0,0.4,0,0.6c0,0.2,0,0.4,0,0.6
		c0,0.4,0.2,0.7,0.4,1c0.3,0.3,0.6,0.4,0.9,0.2c0.1-0.1,0.3-0.2,0.3-0.4c0.1-0.1,0.1-0.3,0.1-0.5c0-0.4,0-0.8,0-1.2s0-0.9,0.1-1.3
		c0.1-0.9,0.5-1.7,1-2.3c0.3-0.3,0.6-0.6,0.8-0.9c0.2-0.3,0.4-0.7,0.5-1.1c0.2-0.8,0.1-1.6-0.3-2.3c0.5,0.7,0.7,1.5,0.5,2.4
		c-0.1,0.9-0.7,1.6-1.2,2.2c-0.5,0.6-0.8,1.4-0.9,2.2c-0.1,0.8,0,1.6-0.1,2.4c0,0.2,0,0.4-0.2,0.7c-0.1,0.2-0.3,0.4-0.5,0.5
		c-0.2,0.1-0.5,0.1-0.7,0c-0.2-0.1-0.4-0.2-0.6-0.4c-0.3-0.3-0.5-0.8-0.5-1.2c0-0.2,0-0.4,0-0.7c0-0.2,0-0.4,0-0.6
		c0-0.8-0.1-1.6-0.3-2.4C54.2,177.3,53.9,176.5,53.8,175.7z"/>
	<path class="st1" d="M54.1,181.6c0,0.7,0.1,1.4,0.2,2.1c0.1,0.7,0.3,1.4,0.5,2c0.1,0.3,0.3,0.6,0.4,0.9c0.1,0.3,0.3,0.6,0.5,0.9
		c0.1,0.3,0.2,0.8,0,1.1c-0.1,0.4-0.4,0.6-0.8,0.7c0.3-0.2,0.6-0.4,0.7-0.8c0.1-0.3,0-0.6-0.1-0.9c-0.1-0.3-0.3-0.6-0.5-0.9
		c-0.2-0.3-0.3-0.6-0.4-1c-0.3-0.7-0.4-1.4-0.5-2.1C53.8,183,53.8,182.2,54.1,181.6z"/>
	<path class="st1" d="M57.4,182.4c0,0.4,0,0.8,0.1,1.2c0,0.2,0.2,0.3,0.3,0.5c0.1,0.2,0.2,0.4,0.2,0.6c0.2,0.8,0.3,1.6,0.4,2.4
		c-0.2-0.8-0.4-1.6-0.7-2.3c-0.1-0.2-0.2-0.4-0.3-0.5c-0.1-0.2-0.2-0.4-0.2-0.6C57.2,183.2,57.3,182.8,57.4,182.4z"/>
	<path class="st2" d="M53.1,167.6l-1.1,4.9c0,0,5.9-0.6,9.4,3.4l1-7.3C62.5,168.6,60.2,166.6,53.1,167.6z"/>
	<path class="st3" d="M53.1,167.6c0,0-1.8-6.1,0-10.6c1.8-4.5,4.4-24.2,6.1-31.6c0.9-3.9,4.5-9,6.7-9.8c1.8-0.7,2.2,18.6,2.6,21.1
		c-2.2,6.3-5.5,15.4-5.5,16.2c0,7-3.2,16.5-3.2,16.5S56.5,168.1,53.1,167.6z"/>
	<path class="st4" d="M61.5,150.4l-1.4,31c0,0,9.8,5.3,17.5,5.6c5.6,28.2,4.3,30.1,4.7,32.8c0.3,1.4,1.7,23.8,1.6,24.6
		c-0.2,0.8-0.3,2.2-0.1,3.1c0.2,0.7-0.3,4.4-0.3,4.4s2.2,0.7,5.1,1c2.8,0.3,6.5-0.7,7.6-0.7c0,0-0.3-2,0-3.2c0.3-1-0.7-2.3-0.3-3.5
		c0.3-1.1,0.8-7.1,0.8-13.5c0-7.7-0.4-14-1.2-16.3c0.3-20.7,0-32.8,0-33.8c-0.1-4.8-0.8-8.4-0.8-9.7c0-1.3-1-22.1-1-22.1L61.5,150.4
		z"/>
	<path class="st5" d="M72.8,175.4c0.1,1.3,0.3,2.6,0.4,4c0.1,1.4,0.2,2.6,0.3,4v0.3h-0.3h-2.7h-0.2v-0.2c0-1.2-0.1-2.3-0.1-3.5
		s0-2.3-0.1-3.5l0.1,0.1c-0.7-0.1-1.3-0.2-1.9-0.3h0v0c0.1-0.4,0.2-0.7,0.3-1c-0.1,0.4-0.1,0.7-0.2,1l0-0.1c0.7,0,1.3,0.1,1.9,0.1
		h0.1v0.1c0.1,1.2,0.2,2.3,0.3,3.5c0.1,1.2,0.1,2.3,0.2,3.5l-0.3-0.2h2.6l-0.2,0.3c0-1.4-0.1-2.6-0.1-4
		C72.8,178.1,72.8,176.8,72.8,175.4z"/>
	<path class="st2" d="M95.5,168.9l0,3.6c0,0-12.3,2.3-14.5,2.4c-2.2,0.1-3.4-3.7-3.4-3.7l2.2-2.1L95.5,168.9z"/>
	<path class="st2" d="M59.9,167.9l-0.4,3.6c0,0,7.8,2.6,9.9,3c2.1,0.4,3.9-3.1,3.9-3.1l-1.9-2.4L59.9,167.9z"/>
	<path class="st5" d="M60.1,181.4c0,0,1,25.2,1,26.4s0.8,37.9,0.5,38.7s-0.8,4.8-0.8,4.8s3.3,1.4,5.4,1.5c2,0.1,2.9,0.3,8.3-1
		c-0.4-3.3-0.4-7.1-0.4-8.2s1.1-13.9,1.1-15.8s0.9-12.2-0.2-16.7c-0.3-1.4,1-24.2,1-24.2S68.4,185.5,60.1,181.4z"/>
	<path class="st6" d="M59.2,172.7v4c0,0,5.7,4.2,21.8,3.4s14.8-1.8,14.8-1.8l-0.3-6.8L59.2,172.7z"/>
	<path class="st3" d="M96.4,117.2c0,0-2.5-1.2-7.2-2.5c-3.1-0.8-5.7-1.4-9.1-1.4c-5.8-0.1-12.3,1.8-14.2,2.3
		c-1.9,0.6-4.1,7.7-4.6,15.1c-0.3,5.8-1,14.3-1.6,24.3c-0.3,5.5-2.3,14.4-0.6,17.7c20.5,6.4,36.3-0.2,36.3-0.2
		c2.2-4.3,0.1-9.8,2.2-34.6C98.7,125.8,96.4,117.2,96.4,117.2z"/>
	<path class="st7" d="M65.9,115.6c-0.5,0.2-0.9,0.7-1.1,1.2c-0.3,0.5-0.5,1-0.8,1.5c-0.4,1-0.8,2.1-1,3.2c-0.6,2.2-0.9,4.4-1.2,6.7
		c-0.1,1.1-0.2,2.2-0.3,3.4l-0.2,3.4c-0.1,2.2-0.3,4.5-0.5,6.8c-0.3,4.5-0.7,9.1-1.1,13.6c-0.4,4.5-0.8,9-1.4,13.6l1.9-27.2l0.5-6.8
		l0.2-3.4c0.1-1.1,0.1-2.3,0.3-3.4c0.3-2.2,0.7-4.5,1.4-6.7c0.3-1.1,0.7-2.2,1.2-3.2c0.2-0.5,0.5-1,0.8-1.5
		C65,116.2,65.4,115.8,65.9,115.6z"/>
	<path class="st1" d="M85.8,100.1l-13.3,0.4c0,0,0.7,6.9,0.7,16.3c0,1.8,1,4.3,1,4.3s5.8-0.8,11.7-7.5
		C85.4,111.9,85.8,100.1,85.8,100.1z"/>
	<path class="st7" d="M72.8,175.1c-1.5-21,2.5-49.8,2.8-51.9l-1.7-1.9l0.4-0.4l1.8,2.1v0.1c0,0.3-4.3,30.3-2.8,51.9L72.8,175.1z"/>
	<path class="st8" d="M48,78.8c0,0-3.5-11.8-8.9-6.8c-5.3,5,2.4,20.4,11,16.5C50.2,88.6,52.2,86.9,48,78.8z"/>
	<path class="st9" d="M36.1,35.3c-6.5,2-3.2,14.8-1.9,18.2c4.9,12.6,5.8,23.8,10,27.8C44.2,81.3,46.6,32,36.1,35.3z"/>
	<path class="st9" d="M104.1,75.9c0,0.5-1.4,14.6-9.7,13.1l0.7-8.8L104.1,75.9z"/>
	<path class="st0" d="M95.6,30c0,0-49.2-6.1-56.5,8.7c-5.8,11.6,0.8,22.8,4,37.3c2.4,10.8,2.8,18.4,3.8,20.2
		c4.6,8.1,16.2,15.3,21.6,15.1c12-0.4,22.3-10.8,26.1-18.4c2.1-4.3,2.7-17.5,1.7-32.9C95.5,46.9,97.7,34.9,95.6,30z"/>
	<path class="st6" d="M73.8,62.5c0.8-0.2,1.4-1,1.2-1.8c-0.2-0.8-1-1.3-1.8-1.2c-0.8,0.2-1.4,1-1.2,1.8C72.2,62.2,73,62.7,73.8,62.5
		z"/>
	<path class="st10" d="M74,60.7c0.2-0.1,0.4-0.3,0.3-0.5s-0.3-0.4-0.5-0.3c-0.2,0.1-0.4,0.3-0.3,0.5S73.8,60.8,74,60.7z"/>
	<path class="st11" d="M45,72.4c0,1.1,1.8,1.9,3.9,1.9c2.2-0.1,3.9-0.9,3.9-2c0-1.1-1.8-1.9-3.9-1.9S45,71.3,45,72.4z"/>
	<path class="st11" d="M72,68.6c0.5,1.1,2.7,1.2,5,0.1c2.2-1,3.6-2.8,3.2-3.9c-0.5-1.1-2.7-1.2-5-0.1C72.9,65.8,71.5,67.5,72,68.6z"
		/>
	<path class="st6" d="M49.6,67.4c0.8-0.2,1.4-1,1.2-1.8c-0.2-0.8-1-1.3-1.8-1.2s-1.4,1-1.2,1.8C47.9,67.1,48.7,67.6,49.6,67.4z"/>
	<path class="st10" d="M49.7,65.6c0.2-0.1,0.4-0.3,0.3-0.5s-0.3-0.4-0.5-0.3c-0.2,0.1-0.4,0.3-0.3,0.5
		C49.3,65.5,49.5,65.6,49.7,65.6z"/>
	<path class="st9" d="M40.6,56.6c1.4-2,3.1-3.6,6.8-4.2c1.9,0,4-0.3,2-2.1c-3.3-2.7-10.5,1.8-10.8,7.2C38.3,60,39.9,58.1,40.6,56.6z
		"/>
	<path class="st9" d="M77.3,49.6c-1.8-1.6-3.9-2.7-7.6-2.2c-1.9,0.5-3.9,0.8-2.5-1.4c2.5-3.5,10.6-1,12.2,4.1
		C80.5,52.2,78.5,50.9,77.3,49.6z"/>
	
		<linearGradient id="SVGID_1_" gradientUnits="userSpaceOnUse" x1="58.981" y1="-711.6994" x2="62.6312" y2="-683.9141" gradientTransform="matrix(1 0 0 1 3.780000e-02 763.7736)">
		<stop  offset="0" style="stop-color:#F9C2A8"/>
		<stop  offset="0.2651" style="stop-color:#F7BCA5"/>
		<stop  offset="0.6038" style="stop-color:#EDAD9B"/>
		<stop  offset="0.981" style="stop-color:#DD928C"/>
		<stop  offset="1" style="stop-color:#DC918B"/>
	</linearGradient>
	<path class="st12" d="M62.4,51.6c0,0-2.8,4.2-9.3,5c0,0,6.5,9.5,3.3,22.7c0,0,7.1,3.2,12.2-3.3C68.6,76,62.1,64.8,62.4,51.6z"/>
	<path class="st9" d="M94.2,72.2c-4.6-7.4-2.7-15.4-7.6-23.2c-3.7-5.8-4.5-16.2-2.3-19.8c0,0,12.8-4.4,13.5-4
		c4.2,2.4,9.8,15.2,7.6,41.1L94.2,72.2z"/>
	<path class="st0" d="M95.1,68.8c0,0,1.2-7.4,7.6-5.3c6.4,2.2,7.1,21-7.3,17.9C95.4,81.4,94,76.5,95.1,68.8z"/>
	<path class="st1" d="M103.3,68.2c-0.8-0.4-1.6-0.7-2.5-0.6c-0.8,0-1.6,0.4-2.1,1.1c-0.5,0.7-0.8,1.4-1,2.2s-0.3,1.7-0.4,2.5
		l-0.3-0.3c0.8-0.1,1.7,0,2.4,0.4c0.8,0.4,1.2,1.2,1.3,2c0.1,0.4,0,0.8-0.1,1.2c-0.1,0.4-0.4,0.7-0.7,1c-0.6,0.5-1.4,0.8-2.2,0.9
		c0.8-0.2,1.4-0.6,2-1.1c0.3-0.3,0.5-0.6,0.6-0.9c0.1-0.4,0.1-0.7,0-1c-0.1-0.7-0.5-1.3-1.1-1.7c-0.6-0.4-1.4-0.4-2.1-0.3l-0.3,0
		l0-0.3c0.1-0.8,0.2-1.7,0.4-2.6s0.6-1.7,1.1-2.4c0.6-0.7,1.5-1.2,2.4-1.1C101.8,67.3,102.7,67.7,103.3,68.2z"/>
	<path class="st1" d="M56.4,79.2c0,0,7.2,8.5,12.2-3.3C68.6,76,63.8,79.1,56.4,79.2z"/>
	<path class="st9" d="M30.5,29.4c4.2-5.5,11.9-16.5,23-18c5.5-0.6,6.1,0.6,6.1,0.6c-0.6-0.8-2.7-3.6-2.7-3.6
		c9.3,3,39.6-6.9,40.8,16.9c1.8,1.5,3,2.8,3.1,3.4c0.7,3-15.4,19.7-15.4,12c0.3-6.5,0.8-7.4-1.9-8.7c-4.8-2.5-12.2-1.6-28.4,6
		c-7.6,3.5-21.7,9-33.6-1.8C21.5,36.1,26.3,34.9,30.5,29.4z"/>
	<path class="st6" d="M54.2,88c7.9,4.8,4.5,12.2,14.8,10.8c9.8-2.3,11.7-19.3,11.7-19.3C67,92.3,54.2,88,54.2,88z"/>
	<path class="st13" d="M76.9,91.8c-7.6,1.2-11.2,4.3-12.8,6.8c1.2,0.4,2.8,0.5,4.9,0.2C72.6,97.9,75.1,95.1,76.9,91.8z"/>
	<path class="st10" d="M54.2,88c1.7,1,2.8,2.1,3.7,3.2c0.4,0.5,14,0,21.7-6.2c0.8-3.1,1.1-5.5,1.1-5.5C67,92.3,54.2,88,54.2,88z"/>
	<path class="st1" d="M55.2,88.7c0.3,0.2,0.7,0.5,1,0.8c0.3,0.3,0.6,0.5,0.9,0.8c0.3,0.3,0.6,0.6,0.8,0.9c1,1.3,1.8,2.8,2.7,4.2
		c0.4,0.7,0.9,1.4,1.5,1.9c0.3,0.3,0.6,0.5,1,0.7c0.3,0.2,0.7,0.4,1.1,0.4c0.2,0.1,0.4,0.1,0.6,0.1c0.2,0,0.4,0.1,0.6,0.1
		c0.4,0.1,0.8,0.1,1.2,0.1s0.8,0,1.2,0c0.4,0,0.8-0.1,1.2-0.1c1.8-0.4,3.6-1.5,4.9-2.9s2.4-3.1,3.3-4.9c0.9-1.8,1.5-3.6,2.1-5.5
		c0.3-0.9,0.5-1.9,0.7-2.9c0.2-1,0.4-1.9,0.5-2.9l0.3,0.2l-1.4,1.2c-0.5,0.4-0.9,0.8-1.4,1.2s-1,0.8-1.5,1.1c-0.5,0.4-1,0.7-1.5,1
		s-1.1,0.6-1.6,0.9c-0.5,0.3-1.1,0.6-1.6,0.8c-0.6,0.3-1.1,0.5-1.7,0.7c-0.6,0.2-1.1,0.4-1.7,0.6s-1.1,0.4-1.8,0.5
		c-0.6,0.2-1.2,0.3-1.8,0.4c-0.6,0.1-1.2,0.2-1.8,0.3s-1.2,0.1-1.8,0.2c-1.2,0.1-2.4,0.1-3.6,0c-1.2-0.1-2.4-0.3-3.6-0.7
		C54.5,88.2,54.8,88.4,55.2,88.7z M57.7,88.6c1.2,0.1,2.4,0.1,3.6,0c0.6,0,1.2-0.1,1.8-0.2c0.6-0.1,1.2-0.2,1.8-0.3s1.2-0.3,1.8-0.4
		s1.1-0.4,1.7-0.5c0.6-0.2,1.1-0.4,1.7-0.7c0.6-0.2,1.1-0.5,1.6-0.8c0.5-0.3,1.1-0.5,1.6-0.8s1.1-0.6,1.5-0.9c0.5-0.3,1-0.7,1.5-1
		c0.5-0.3,1-0.7,1.4-1.1c0.5-0.4,0.9-0.8,1.4-1.2l1.4-1.2l0.4-0.4l-0.1,0.6c-0.1,1-0.3,2-0.5,3c-0.2,1-0.4,2-0.7,2.9
		c-0.5,1.9-1.2,3.8-2.1,5.6s-2,3.5-3.4,4.9c-1.4,1.4-3.2,2.6-5.1,3c-0.4,0-0.8,0.1-1.2,0.1c-0.4,0-0.8,0-1.2,0s-0.8,0-1.2-0.1
		c-0.2,0-0.4,0-0.6-0.1c-0.2,0-0.4-0.1-0.6-0.2c-0.4-0.1-0.8-0.3-1.1-0.5c-0.3-0.2-0.7-0.4-1-0.8c-0.6-0.6-1.1-1.3-1.5-2
		c-0.4-0.7-0.8-1.4-1.2-2.2c-0.4-0.7-0.9-1.4-1.4-2.1c-0.3-0.3-0.5-0.6-0.8-0.9c-0.3-0.3-0.6-0.6-0.9-0.8s-0.6-0.5-1-0.8
		c-0.3-0.3-0.7-0.5-1-0.7C55.3,88.3,56.5,88.5,57.7,88.6z"/>
	<path class="st1" d="M77.8,79.5c0,0,0.4-0.2,0.9-0.3c0.1-0.1,0.3-0.1,0.4-0.1c0.2,0,0.3,0,0.5,0c0.2,0,0.3,0,0.5,0
		c0.1,0,0.2,0,0.3,0l0.3,0.1c0.2,0,0.3,0.1,0.5,0.2c0.1,0.1,0.3,0.2,0.4,0.3c0.1,0.1,0.3,0.2,0.4,0.4c0.1,0.1,0.2,0.2,0.3,0.4
		c0.1,0.1,0.2,0.2,0.3,0.3c0.1,0.1,0.1,0.2,0.2,0.3c0.1,0.1,0.2,0.2,0.2,0.2s0-0.1-0.1-0.3c-0.1-0.2-0.1-0.4-0.3-0.7
		c-0.1-0.1-0.2-0.3-0.3-0.4c-0.1-0.1-0.2-0.3-0.3-0.4c-0.1-0.1-0.3-0.3-0.5-0.4c-0.2-0.1-0.3-0.2-0.6-0.3l-0.3-0.1
		c-0.1,0-0.2,0-0.3,0c-0.2,0-0.4,0-0.6,0c-0.2,0-0.4,0-0.6,0.1c-0.2,0.1-0.3,0.1-0.5,0.2C78.1,79.2,77.8,79.5,77.8,79.5z"/>
	<path class="st9" d="M69.9,25.2c0,0,2.2,4.9-3.9,10.1C59,41.1,50.2,42,50.2,42s4-3.1,3.3-6.4c-1.1-4.9,7.7-13,7.7-13L69.9,25.2z"/>
	<path class="st9" d="M49.8,12.3c0,0-2.9,0.9-14,7.8c-4.6,2.9-8.1-1.9-8.1-1.9s-3,12,8.2,10.7C47.1,27.6,49.8,12.3,49.8,12.3z"/>
	<path class="st6" d="M85.7,108.7c0,0-5.3,2.9-8.4,3.2c-3.1,0.2-2.5,7.7-2.7,9.7c0,0,7.2-1,9.9-3.2c2.7-2.1,3.7-3.8,3.7-3.8
		s0.3-4.4-0.1-6.2c-0.1-0.4-2.5-1.7-2.5-1.7L85.7,108.7z"/>
	<path class="st6" d="M72.1,111c0,0-0.7,0.3-1.2,1c-0.5,0.7,0.6,5.2,0.4,6.3c-0.2,1.1,2.4,3,2.4,3l0.6-0.5l-0.3-7.6
		c0-0.5-0.3-0.9-0.8-1.1l0-1.3L72.1,111z"/>
	<path class="st14" d="M75,121.4l-0.3-0.1v-0.6l-0.7-0.2l-0.3,0.5l-0.3,0l-1.1,2.6c-0.1,0.3,0,0.7,0.3,0.8l0.9,0.3
		c0.3,0.1,0.7-0.1,0.8-0.4L75,121.4z"/>
	<path class="st10" d="M83.3,131.8c-0.1,0-0.2,0-0.3,0.2l-1.3,1.6l-0.3-1.6c0-0.2-0.1-0.2-0.2-0.2c-0.1,0-0.2,0-0.3,0.2l-1.2,2.1
		l0.6,0l0.8-1.4l0.3,1.5l0.5,0l1.1-1.4l-0.1,1.5l0.5,0l0.1-2.1C83.5,131.9,83.4,131.9,83.3,131.8z"/>
	<path class="st10" d="M79,131.9l-0.6,1.9H79l0.6-1.9H79z"/>
	<path class="st10" d="M78.1,132.4c0-0.3-0.1-0.6-0.6-0.6l-1-0.1l-0.6,1.9l0.5,0l0.2-0.7h0.3l0.4,0.8l0.6,0l-0.5-0.8
		C77.8,132.9,78,132.7,78.1,132.4z M77.1,132.7l-0.4,0l0.2-0.6l0.4,0c0.2,0,0.3,0.1,0.3,0.3C77.5,132.6,77.3,132.7,77.1,132.7z"/>
	<path class="st10" d="M85.6,134.3l0.5,0l-0.3-1.8c0-0.2-0.2-0.3-0.3-0.3c-0.1,0-0.2,0-0.3,0.1l-1.4,1.8l0.5,0l0.3-0.4l0.9,0
		L85.6,134.3z M84.8,133.6l0.5-0.7l0.1,0.7L84.8,133.6z"/>
	<path class="st10" d="M87.7,134.1c-0.4,0-0.7-0.3-0.6-0.6c0.1-0.4,0.5-0.7,1-0.6c0.2,0,0.3,0,0.5,0.1l0.1-0.4
		c-0.1,0-0.4-0.1-0.6-0.1c-0.9,0-1.5,0.3-1.6,0.9c-0.1,0.6,0.3,1,1.1,1c0.2,0,0.3,0,0.5,0l0.1-0.4C88.1,134.1,87.9,134.1,87.7,134.1
		z"/>
	<path class="st0" d="M65.7,151.6c0,0-0.8-0.8-0.9-1.4c-0.1-0.6,0.5-1.6,0.5-1.6s-0.5-0.8-0.3-1.7c0.3-1,0.9-1.4,0.9-1.4
		s-0.8-0.8-0.5-1.7c0.3-0.9,1.3-1.3,2.6-1.1c0,0,7.4,0.1,8.3,1c1.4,1.2,3.1,4.6,3.1,4.6c1.2,1.2,0.8,6.4,0.8,6.4l-3.3-0.4
		c-1,1.1-7.9,1-8.6,0.7c-1.4-0.6-1.8-0.7-2.7-1.5C65,152.9,65.7,151.6,65.7,151.6z"/>
	<path class="st0" d="M73.1,137.2c-0.1,1.2,0.4,1.9,1.8,4.6c0.6,1.2,2.2,0.6,3.8,5c0.4,1.2-7.6-2.2-7.2-2.7c1-1.1-1.3-3.1-1.2-5.6
		C70.3,136.4,73.2,134.4,73.1,137.2z"/>
	<path class="st0" d="M67.1,142.8c0,0,3.9-0.3,4.6,1.1c0.7,1.4,0,2.1-0.8,2.2c0,0,0.6,0.5,0.5,1.5s-1,1.2-1.9,1.3
		c-0.9,0.1-3.4-0.3-3.4-0.3L67.1,142.8z"/>
	<path class="st2" d="M78.8,146.9l5.6,1l-0.9,7.7l-5.4-0.9L78.8,146.9z"/>
	<path class="st3" d="M82.9,147.6c1.5-3.6,7.1-1.3,10-1.8c-1.1-4.4-1.6-9-1.6-9l-2.1-4.4c0.2-10.3,3.1-14.6,6.9-15.4
		c0,0,4.3,1.8,5.7,8.1c0.4,1.9,4.5,28.8,0.1,32.7c-3.9,3.5-15.9,2.7-19.5-0.9L82.9,147.6z"/>
	<path class="st7" d="M82.9,147.6c0.2-0.4,0.4-0.9,0.8-1.2c0.3-0.3,0.8-0.5,1.2-0.7c0.9-0.3,1.8-0.4,2.7-0.4
		c0.9,0.1,1.8,0.1,2.7,0.2c0.9,0.1,1.8,0.1,2.6,0l-0.2,0.3c-0.4-1.5-0.7-3-1-4.5c-0.3-1.5-0.5-3-0.7-4.5l0,0.1
		c-0.7-1.5-1.4-3-2.1-4.5l0,0v-0.1c0-1.5,0.1-3.1,0.3-4.6c0.2-1.5,0.5-3,1-4.5c0.1-0.4,0.3-0.7,0.4-1.1c0.1-0.4,0.3-0.7,0.5-1
		c0.2-0.4,0.3-0.7,0.6-1s0.4-0.6,0.7-0.9c0.5-0.6,1.1-1.1,1.7-1.5c0.7-0.4,1.4-0.7,2.1-0.8c-0.7,0.2-1.4,0.5-2,0.9
		c-0.6,0.4-1.1,0.9-1.6,1.5c-0.9,1.2-1.5,2.6-1.9,4c-0.4,1.4-0.7,2.9-0.8,4.4c-0.2,1.5-0.3,3-0.3,4.6l0-0.1c0.7,1.5,1.4,2.9,2,4.4
		l0,0.1v0.1c0.2,1.5,0.4,3,0.6,4.5c0.3,1.5,0.6,3,0.9,4.4l0,0.2l-0.2,0c-0.9,0.1-1.8,0-2.7-0.1c-0.9-0.1-1.8-0.2-2.7-0.3
		c-0.9,0-1.8,0-2.6,0.2C84,146.2,83.2,146.7,82.9,147.6z"/>
	<path class="st7" d="M102,157.7c-0.6,0.6-1.4,1-2.2,1.4c-0.8,0.4-1.7,0.6-2.5,0.7c-1.7,0.3-3.5,0.4-5.2,0.4s-3.5-0.3-5.1-0.8
		c-0.8-0.2-1.7-0.5-2.5-0.9c-0.8-0.4-1.5-0.9-2.2-1.5l-0.1-0.1v-0.1c0-0.8,0.1-1.5,0.1-2.3l0.2-2.3c0-0.8,0.1-1.5,0.2-2.3
		s0.1-1.5,0.2-2.3c0,0.8,0,1.5,0,2.3c0,0.8,0,1.5,0,2.3l0,2.3c0,0.8,0,1.5-0.1,2.3l-0.1-0.2c1.2,1.2,2.8,1.8,4.5,2.2
		c1.6,0.4,3.3,0.7,5.1,0.8c1.7,0.1,3.4,0.1,5.1-0.2C98.9,159.2,100.6,158.8,102,157.7z"/>
</g>
</svg>
